<svg xmlns="http://www.w3.org/2000/svg" viewBox="0 0 1200 760" role="img" aria-labelledby="title desc">
  <title id="title">Europe coverage map</title>
  <desc id="desc">Modern stylized network map of Europe with LitC logistics routes.</desc>
  <defs>
    <linearGradient id="bg" x1="0" y1="0" x2="1" y2="1">
      <stop offset="0%" stop-color="#f5f9fd" />
      <stop offset="100%" stop-color="#eaf2f9" />
    </linearGradient>
    <linearGradient id="sea" x1="0" y1="0" x2="0" y2="1">
      <stop offset="0%" stop-color="#dce9f5" />
      <stop offset="100%" stop-color="#c9dced" />
    </linearGradient>
    <linearGradient id="land" x1="0" y1="0" x2="0" y2="1">
      <stop offset="0%" stop-color="#f9fcff" />
      <stop offset="100%" stop-color="#edf4fb" />
    </linearGradient>
    <linearGradient id="route" x1="0" y1="0" x2="1" y2="1">
      <stop offset="0%" stop-color="#3a6f96" />
      <stop offset="100%" stop-color="#5bbd2f" />
    </linearGradient>
    <filter id="soft" x="-20%" y="-20%" width="140%" height="140%">
      <feDropShadow dx="0" dy="8" stdDeviation="10" flood-color="#1e4f78" flood-opacity="0.15" />
    </filter>
    <filter id="glow" x="-30%" y="-30%" width="160%" height="160%">
      <feDropShadow dx="0" dy="0" stdDeviation="8" flood-color="#5bbd2f" flood-opacity="0.35" />
    </filter>
  </defs>

  <rect x="0" y="0" width="1200" height="760" rx="34" fill="url(#bg)" />
  <rect x="36" y="36" width="1128" height="688" rx="28" fill="url(#sea)" />

  <g filter="url(#soft)" stroke="#2d3945" stroke-width="3.2" stroke-linejoin="round" stroke-linecap="round">
    <path
      fill="url(#land)"
      d="M248 518 L266 470 L295 446 L323 440 L350 410 L385 384 L425 372 L468 370 L505 356 L544 334 L588 316 L636 312 L682 326 L720 350 L760 356 L804 368 L840 392 L858 421 L854 448 L824 470 L772 478 L732 498 L722 530 L742 560 L724 586 L686 598 L648 590 L616 572 L582 572 L548 590 L512 622 L470 644 L424 640 L398 616 L390 586 L362 578 L324 586 L292 574 L256 548 Z"
    />
    <path
      fill="url(#land)"
      d="M566 576 L596 568 L624 576 L642 604 L634 634 L612 658 L622 690 L598 706 L574 694 L560 662 L546 628 Z"
      opacity="0.95"
    />
    <path
      fill="url(#land)"
      d="M598 256 L632 220 L676 196 L724 194 L758 214 L774 246 L770 284 L744 312 L706 324 L666 316 L634 292 Z"
      opacity="0.95"
    />
    <path
      fill="url(#land)"
      d="M430 396 L446 382 L464 386 L470 402 L458 416 L438 414 Z"
      opacity="0.95"
    />
    <path
      fill="url(#land)"
      d="M390 388 L408 372 L426 376 L432 392 L420 406 L400 404 Z"
      opacity="0.95"
    />
    <path
      fill="url(#land)"
      d="M654 602 L680 610 L694 632 L686 652 L662 658 L646 642 L644 622 Z"
      opacity="0.95"
    />
    <path
      fill="url(#land)"
      d="M744 296 L762 278 L778 280 L780 296 L768 310 L752 312 Z"
      opacity="0.95"
    />
    <path
      fill="url(#land)"
      d="M196 262 L222 246 L254 246 L278 258 L284 278 L274 296 L248 304 L220 300 L198 284 Z"
      opacity="0.95"
    />
    <path
      fill="url(#land)"
      d="M258 366 L280 350 L304 354 L318 374 L312 396 L288 406 L266 402 L252 386 Z"
      opacity="0.95"
    />
    <path
      fill="url(#land)"
      d="M742 710 L772 706 L796 714 L786 728 L758 732 L740 724 Z"
      opacity="0.95"
    />
  </g>

  <g stroke="url(#route)" stroke-width="6" stroke-linecap="round" opacity="0.9">
    <path d="M560 430 C600 420, 650 412, 694 424" />
    <path d="M560 430 C490 468, 418 520, 344 550" />
    <path d="M560 430 C578 508, 598 590, 592 652" />
    <path d="M560 430 C602 350, 640 292, 688 256" />
    <path d="M560 430 C504 416, 456 404, 420 392" />
    <path d="M560 430 C628 450, 678 482, 706 520" />
  </g>

  <g fill="#3a6f96">
    <circle cx="420" cy="392" r="10" />
    <circle cx="344" cy="550" r="10" />
    <circle cx="592" cy="652" r="10" />
    <circle cx="694" cy="424" r="10" />
    <circle cx="688" cy="256" r="10" />
    <circle cx="706" cy="520" r="10" />
  </g>

  <g filter="url(#glow)">
    <circle cx="560" cy="430" r="16" fill="#5bbd2f" />
  </g>
  <circle cx="560" cy="430" r="12" fill="#5bbd2f" stroke="#ffffff" stroke-width="4" />

  <g fill="#1e4f78" font-family="Manrope, Segoe UI, Arial, sans-serif" font-size="22" font-weight="700">
    <text x="438" y="376">Benelux</text>
    <text x="706" y="410">Polska</text>
    <text x="724" y="238">Skandynawia</text>
    <text x="716" y="508">Balkany</text>
    <text x="606" y="702">Wlochy</text>
    <text x="358" y="574">Francja / Hiszpania</text>
  </g>

  <rect x="74" y="74" width="430" height="86" rx="16" fill="#ffffff" opacity="0.88" />
  <text x="100" y="126" fill="#1e4f78" font-family="Manrope, Segoe UI, Arial, sans-serif" font-size="33" font-weight="800">
    Obszar dzialania EU
  </text>
</svg>
